<?xml version="1.0" encoding="iso-8859-1"?>
<!-- Generator: Adobe Illustrator 19.0.0, SVG Export Plug-In . SVG Version: 6.00 Build 0)  -->
<svg version="1.1" id="Capa_1" xmlns="http://www.w3.org/2000/svg" xmlns:xlink="http://www.w3.org/1999/xlink" x="0px" y="0px"
	 viewBox="0 0 512 512" style="enable-background:new 0 0 512 512;" xml:space="preserve">
<path style="fill:#009688;" d="M256,0C114.615,0,0,114.615,0,256s114.615,256,256,256c12.569-0.013,25.115-1.083,37.504-3.2
	c3.288-0.528,6.325-2.085,8.672-4.448L504.448,302.08c2.363-2.347,3.92-5.384,4.448-8.672c2.079-12.361,3.118-24.874,3.104-37.408
	C511.841,114.681,397.319,0.159,256,0z"/>
<path style="fill:#4DB6AC;" d="M508.544,286.592c-1.503-5.621-5.939-9.983-11.584-11.392
	c-98.11-24.365-197.395,35.418-221.76,133.528c-7.195,28.971-7.195,59.261,0,88.232c1.386,5.613,5.692,10.041,11.264,11.584
	c1.397,0.382,2.839,0.576,4.288,0.576c4.235-0.001,8.297-1.681,11.296-4.672L504.32,302.176
	C508.438,298.125,510.053,292.168,508.544,286.592z"/>
<g>
	<path style="fill:#FAFAFA;" d="M80,320c-8.837,0-16-7.163-16-16V176c0-8.837,7.163-16,16-16h32c26.51,0,48,21.49,48,48
		s-21.49,48-48,48H96v48C96,312.837,88.837,320,80,320z M96,224h16c8.837,0,16-7.163,16-16s-7.163-16-16-16H96V224z"/>
	<path style="fill:#FAFAFA;" d="M112,320H80c-8.837,0-16-7.163-16-16s7.163-16,16-16h32c8.837,0,16-7.163,16-16s-7.163-16-16-16H80
		c-8.837,0-16-7.163-16-16s7.163-16,16-16h32c26.51,0,48,21.49,48,48S138.51,320,112,320z"/>
	<path style="fill:#FAFAFA;" d="M240,320c-26.51,0-48-21.49-48-48v-96c0-8.837,7.163-16,16-16s16,7.163,16,16v96
		c0,8.837,7.163,16,16,16s16-7.163,16-16v-96c0-8.837,7.163-16,16-16s16,7.163,16,16v96C288,298.51,266.51,320,240,320z"/>
	<path style="fill:#FAFAFA;" d="M368,256c-6.055,0-11.591-3.419-14.304-8.832l-32-64c-4.02-7.869-0.899-17.507,6.97-21.527
		s17.507-0.899,21.527,6.97c0.038,0.074,0.075,0.147,0.111,0.221L368,204.224l17.696-35.392c3.898-7.931,13.486-11.2,21.417-7.302
		c7.931,3.898,11.2,13.486,7.302,21.417c-0.036,0.074-0.073,0.148-0.111,0.221l-32,64C379.591,252.581,374.055,256,368,256z"/>
	<path style="fill:#FAFAFA;" d="M368,320c-8.837,0-16-7.163-16-16v-64c0-8.837,7.163-16,16-16s16,7.163,16,16v64
		C384,312.837,376.837,320,368,320z"/>
</g>
<path d="M256,512C114.615,512,0,397.385,0,256S114.615,0,256,0s256,114.615,256,256c-0.02,12.569-1.09,25.114-3.2,37.504
	c-0.545,3.283-2.1,6.314-4.448,8.672L302.176,504.448c-2.358,2.348-5.389,3.903-8.672,4.448
	C281.111,510.974,268.566,512.012,256,512z M256,32C132.288,32,32,132.288,32,256s100.288,224,224,224
	c9.121,0.001,18.231-0.63,27.264-1.888l194.848-194.848c1.258-9.033,1.889-18.143,1.888-27.264
	C479.859,132.347,379.653,32.141,256,32z"/>
<path d="M290.848,509.12c-7.353-0.006-13.755-5.022-15.52-12.16c-24.346-98.115,35.456-197.389,133.57-221.735
	c28.914-7.175,59.143-7.183,88.062-0.025c8.58,2.121,13.817,10.796,11.696,19.376c-2.121,8.58-10.796,13.817-19.376,11.696
	c-80.949-20.067-162.839,29.289-182.905,110.238c-5.924,23.896-5.915,48.878,0.025,72.77c2.133,8.575-3.09,17.256-11.666,19.388
	c-0.005,0.001-0.01,0.002-0.014,0.004C293.449,508.961,292.151,509.111,290.848,509.12z"/>
<g>
</g>
<g>
</g>
<g>
</g>
<g>
</g>
<g>
</g>
<g>
</g>
<g>
</g>
<g>
</g>
<g>
</g>
<g>
</g>
<g>
</g>
<g>
</g>
<g>
</g>
<g>
</g>
<g>
</g>
</svg>
